<?xml version="1.0" encoding="utf-8"?>

<svg version="1.1" id="Layer_1" xmlns="http://www.w3.org/2000/svg" xmlns:xlink="http://www.w3.org/1999/xlink" x="0px" y="0px"
	 viewBox="0 0 841.9 595.3" style="enable-background:new 0 0 841.9 595.3;" xml:space="preserve">


  

  <g 
   fill="#ff8cb4"  
   id="tammy" 
   azimuth="200">
   
   <path  class="path" d="M294.9,308.5c17.1-66-37.6-29.1-6.2-103.6c8.9-26,39.1-37.1,48.7-62.6c8.3-23.1-14.1-55.5,16.4-68.5
      c125.4-49.8,140.4,2.7,191.7,97.7c36.6,35.5,18.4,85.1-5.6,121.8c-13.9,19.9,18.6,76.3-15.4,75c-19.6,18-26,5.6-37.7,31.4
      c-29.4,20.8-88.6,17.7-100.6-19.9c-22.4,6.1-35-14.9-46-26.9C318.8,347.8,291.1,335.2,294.9,308.5z M363.1,343.3
      c-11.7,20.3,8.6,32.1,25.3,20c0.5-17.2,4.2-36.9,22.1-20.8c1.1,17.9-12.6,46.9,7.8,56c23-1.5,53.6,6.8,67.2-17
      c1.7-15.8,7.1-59.8,11-14.7c34.1-1.6,18.3-44.9,20.7-68.2c2.9-31.4,36.7-53.5,30.4-86.9c1.7-26.5-21-41.3-33.4-60.4
      c-3.4-47.8-38.1-102.4-92-86.9c1.4,1.3,7.7,4.2,3.9,6.1c-120-4.4-53.3,41.8-84.2,90.8c-3.9,14.9-38.2,31-26.2,44.8
      c0.2,4.1-11.3,8.2-9.8,15.8c8.1,35,14.8,63.7,9,100.4c0.4,16.6,17.6,17.6,28.3,25.8c5.6-0.5,3.5-13.1,7.2-17.5
      C354.1,320.5,377.3,342.7,363.1,343.3z M287.4,245.3c1.5,4.4,6.4,14.6,11,14C297.2,254.6,290.5,233,287.4,245.3z"/>
   <path  class="path" d="M355.9,474.2c46.6,19.7-4.4-91,19.9-73.9c-3,17.6,21.2,81.2,4.7,84.5c-8.9-2.8-24.3-2.8-30.3,3.5
      C337.5,482.3,342.1,471,355.9,474.2z"/>
   <path  class="path" d="M433.6,493.8c63.7,2.1,23.7-2.4,30.3-67.6c11.6,18.8,4.7,53.4,13.8,76.8c-6,4.2-19.5-2.8-28.4-0.8
      c-10.6-10.2-17.2,12.3-21.5,1.9C415.8,495.3,427.6,494.1,433.6,493.8z"/>
   <path  class="path" d="M457.4,123.6c2.2,15.5,15.5,55.3,7.7,79.9c-7.6,1.2-7.6,13.9-16.1,21.8c-0.1-2.6,5.7-15.9-0.5-7.9
      c-10.9,42.7-42.5,10.9-38.6-19.6c0.4-3.7-0.4-12.3-3.8-5.1c-45,26.4-28-61.6-17.5-84.4c-1.3-12.3,13.3-1,17.3,2.7
      c12.1,5.2,2.5,26.3,8.8,33.1c5.3-34.1,20.1-23.6,24.8-44.2C449.5,102.2,462.5,112.2,457.4,123.6z M449.4,150
      c-7.8-80.9-37.6,61.1-25.3,79.3C459.9,233.7,450.8,119.6,449.4,150z M390.4,166.9c0.5,48.7,19-19.1,15.6-34.8
      C401.9,92.9,387.6,152.5,390.4,166.9z"/>
   <path  class="path" d="M371.8,274.3c18.4,13.3,1.1,72,37.1,26.1c18-17.2-21-3.4-18.7-20.4c33.9,10.8,38.6-24.6,20.7-18.7c-34,0.2-13.7,0-42.1,12.1
      c-2.9-0.4-15.3-3.3-10.4-6.7c12.6-1.2,17.3-17,29.3-19.1c28.7,12.4,28.6-11.3,48.3,28c9.1,16.2-11.5,30.9-23.8,49.1
      C384,347.6,350.4,296.5,371.8,274.3z"/>
   <path  class="path" d="M481,304.5c4.1-11.7,14.3-24.8,24.1-36.4c-2.2-16.6-36.7-36.3-22.2-55.5c4.4,19.2,20.3,40.1,30.8,57.3
      C494.5,281.6,497,349.8,481,304.5z"/>

  </g>
</svg>
