<?xml version="1.0" encoding="utf-8"?>
<!-- Generator: Adobe Illustrator 25.4.1, SVG Export Plug-In . SVG Version: 6.00 Build 0)  -->
<svg version="1.1" id="Layer_1" xmlns="http://www.w3.org/2000/svg" xmlns:xlink="http://www.w3.org/1999/xlink" x="0px" y="0px"
	 viewBox="0 0 1920 1080" style="enable-background:new 0 0 1920 1080;" xml:space="preserve">
<style type="text/css">
	.st0{fill:#020102;}
	.st1{fill:#DD0128;}
</style>
<path class="outside" d="M566.51,687.14c-0.4-1.11-1.46-1.85-2.64-1.84c-1.23,0-2.48,0.13-3.7-0.07c-5.6-0.96-6.96-7.94-8.26-12.53
	c-1.16-4.09-2.15-8.22-2.78-12.42c-2.05-13.86-2.29-28.1-1.96-42.12c0.33-13.83,2.51-27.52,4.46-41.19
	c2.62-18.34,4.85-36.7,8.7-54.89c6.89-32.56,17.33-64.67,34.17-93.53c16.67-28.57,39.54-52.99,66.98-71.48
	c65.52-44.15,147.6-57.85,225.02-62.09c70.47-3.86,141.07,0.64,211.29,6.59c79.01,6.3,138.98,54.23,165.56,128.34
	c26.81,74.76,23.32,159.44,8.78,236.38c-7.48,39.56-13.1,83.94-38.61,116.69c-28.45,36.55-95,49.43-133.9,23.17
	c-23.39-15.79-37.75-41.89-49.25-66.92c-19.93-43.39-32.75-90.79-62.22-129.19c-17.01-22.16-39.67-38.95-67.21-45.2
	c-0.28-0.06-0.58-0.09-0.87-0.07c-99.95,5.95-93.18,139.94-150.45,196.81C715.33,818.77,604.31,790.93,566.51,687.14z
	 M681.77,764.48c30.17,7.11,55-7.87,68.69-35.02c9.86-19.57,13.29-41.64,19.33-62.71c15.44-53.86,53.12-105.18,107.24-119.67
	c36.09-9.66,75.75-1.56,107.41,18.28c31.66,19.84,55.59,50.64,70.83,84.75c11.09,24.85,17.82,51.47,29.05,76.26
	c11.22,24.79,28.06,48.54,52.71,60.05c6.21,2.9,13.11,4.99,19.88,3.94c5.84-0.91,11.09-4.07,15.86-7.56
	c32.83-24,49.45-64.74,56.14-104.86c6.69-40.12,5.04-81.16,9.65-121.57c3.64-31.9,11.19-63.52,10.58-95.62s-10.91-66.04-36.19-85.83
	c-18.5-14.49-42.46-19.61-65.57-23.89c-91.73-16.99-185.4-27.27-278.34-19.22c-45.48,3.94-91.02,12.39-132.85,30.68
	c-41.83,18.29-79.93,46.99-104.37,85.55c-22.7,35.81-32.68,78.28-37.43,120.41c-4.22,37.45-4.48,76.17,7.55,111.88
	C614.98,719.04,643.21,750.37,681.77,764.48"/>
<path class="inside" d="M698.92,687.86c-6.26-1.4-5.7-11.65-8.96-15.75c-2.04-16.3-4.08-32.6-6.13-48.9
	c-1.49-11.86-7.85-9.08-16.18-14.13c-0.44-0.27-1.01-0.14-1.33,0.28c-0.29,0.38-0.64,0.69-1.33,0.71c-0.05,0-0.1-0.02-0.14-0.06
	c-1.45-1.85-5.34-6.64-7.04-6.08c-2.38,0.78-1.35,6.98-4.81,6.32c-0.39-4.93,0.01-10.49,0.83-15.4c2.37-14.22,4.91-28.37,9.65-42.12
	c27.53-79.87,112.55-130.08,191.96-145.12c104.34-19.76,235.14-8.1,288.75,96.69c13.58,26.56,21.8,55.47,27.53,84.64
	c2.98,15.15,10.08,38.99,5.89,54.94c-2.21,8.34-1.17,7.97-9.63,9.25c-7.33,1.11-23.07-0.9-29.23,2.83
	c-4.97-23.33-3.37-47.67-8.91-71.28c-5.76-24.56-14.42-48.79-27.4-70.51c-23.73-39.7-66.05-60.61-110.35-68.51
	c-46.08-8.22-89.29-1.29-134.98,3.22c-1.66,0.16-3.34,0.26-5.01,0.14c-6.28-0.45-10.31-3.42-17.08-1.55
	c-6.86,1.9-55.58,13.19-51.05,23.02c0.96,2.08-3.77,4.43-5.07,5.43c-30.02,22.95-67.35,51.13-76.09,89.92
	C693.9,605.43,695.33,647.75,698.92,687.86"/>
</svg>
