<?xml version="1.0" encoding="utf-8"?>
<svg version="1.1" id="Layer_1" xmlns="http://www.w3.org/2000/svg" xmlns:xlink="http://www.w3.org/1999/xlink" x="0px" y="0px"
	 viewBox="0 0 1920 1080" style="enable-background:new 0 0 1920 1080;" xml:space="preserve">
<g 	fill="none"  
  	id="tammy">
		
	<path id="outline" d="M1200.4,484.26c-0.82-27.49-2.12-49.79-4.9-68.17c0,0.31,0,0.62,0,0.93c-0.34-0.02-0.39-1.48-0.15-1.94
		c-11.32-72.66-46.58-83.25-169.73-110.95c27.41,1.96,103.17,28.81,91.09,18.61c-65.6-65.71-491.39-51.76-507.79,36.15
		c20.51-12.62-42.25,31.04-36.51,34.73c-0.35,6.75,8.84,10.57,10.56,22.44c117.32,20.13,132.03,16.36,171.62,9.3
		c0.52-0.16,1.08-0.26,1.69-0.3c9.97-1.77,21.56-3.72,36.72-5.54c-55.6-2.67-29.54,0.19-8.9-4.94c28.67-2.7-4.74-1.03-16.48-1.53
		c12.32-1.15,25.61-1.44,38.3-2.27c0.01-0.02,0.02-0.04,0.03-0.05c-19.81-0.2-39.85,0-55.82-0.07c22.58-0.11,49.94-2.06,56.42-5.19
		c4.19-2.28,15.01-4.56,30.52-6.77c21.89-3.68,43.96-6.46,66.08-7.93c1.82-0.12,3.56,0.08,5.2,0.54
		c26.23-2.12,55.36-4.04,84.81-5.66c0.02,0,0.04-0.01,0.06-0.01c0.01,0,0.03,0,0.04,0c11.34-0.62,22.72-1.2,34-1.73
		c2.41-0.58,4.87-0.61,7.43-0.34c3.71-0.17,7.41-0.33,11.08-0.48c0.55-0.05,1.1-0.07,1.64-0.07c46.16-1.93,89.08-2.92,118.24-2.55
		c-6.51,0.47-12.39,0.87-17.68,1.21c0.82,0.06,1.63,0.15,2.45,0.23c5.98-0.08,11.93-0.2,17.85,0.96c2.99,0.58,4.06,2.95,3.75,5.26
		c0.03,0.01,0.06,0.01,0.09,0.02c-0.5,3.89-0.8,7.97-0.93,12.23c0.05,1.04,0.03,2.06-0.06,3.06c-0.68,60.33,31.3,153.07,32.9,218.15
		c0.05,0.29,0.07,0.55,0.02,0.76c0.17,8.21-0.15,15.96-1.08,23.15c0.05-0.05,0.1-0.11,0.15-0.15c-0.92,2.67,0.73,9.43-1.89,9.87
		c-4.08,17.53-12.89,30.7-28.8,37.24c-131.01-4.9-132.58,34.25-148.08-64.44c-46.13-27.78-130.59-46.83-207.21-44.83
		c-0.13,0.81-3.08,1.72-2.86,0.46c0.55-0.14,1.11-0.28,1.66-0.42c-59.31,1.72-113.76,16.15-141.88,48.99
		c-0.13,0.29-0.33,0.54-0.61,0.73c-3.54,4.22-6.67,8.73-9.3,13.56c-35.68,36.64,3.95-1.97,23.03-13.43
		c9.35-6.99-49.92,36.86-44.71,45.44c7.51-9.23,7.38-9.4,0.61,2.17c3.42-1.95,13.47-18.44,6.96-4.92c2.76-2.12-0.23,6.21-1.26,10.13
		c0.32,0.33,0.49,0.77,0.53,1.23c0.8-1.07,2.25-3.45,4.66-7.78c-11.58,25.73,1.86,8.08,10.55-6.44
		c-24.49,28.74,4.85-11.29,25.61-25.11c-5.3,2.57-10.29,2.85-3.78-4.58c-10.82,0.2,11.95-9.66,15.78-13.2
		c0.11,2.89-18.63,13.29-6.57,8.47c4.23,1.28,2.13,4.37-1.45,6.95c2.26-1.16,4.35-1.89,6.17-2.01
		c-14.96,18.66-5.93,35.46-9.37,60.37c1.04-26.99-21.55,20.99,29.23,15.8c6.82,3.26-4.09-61.91,6.12-46.05
		c3.71-3.16,5.1-1.29,3.32,3.62c2.1-3.86,1.53,0.16,2.82-1.45c5.45,12.17,8.09-14.46,6.03,3.77c21.35-48.23,5.32,63.52,30.89,51.3
		c23.79,1.73-8.38-42.5,40.84-30.32c1.07,11.24,4.08,29.99,17.33,20.83c12.45,1.05,4.33-8.41,1.73-14.59
		c-1.42-4.31-0.57-9.69-2.07-1.08c0.03-2.71-2.47-9.13,0.25-7.11c25.98-7.12,39.36,2.15,34.59,28.45
		c-29.69,0.89-58.46,7.34-86.83,15.76c-34.5,16.13,150.78-11.97,170.28-5.82c44.58,20.48,17.09-4.68,41.46-4.94
		c-1.96,6.47,42.08,7.06,36.62,3.84c53.14-5.68,113.36,2.17,168.91-1.06c32.16,4.47,20.5-43.71,28.02-46.34
		C1244.71,596.25,1222.89,614.31,1200.4,484.26z M778.63,414.4c0.62,0.04,1.24,0.09,1.86,0.13
		C780.85,415.53,778.12,415.37,778.63,414.4z M1131.89,333.75c0.03,0.01,0,0.19,0,0.43
		C1130.19,333.61,1130.16,332.99,1131.89,333.75z M1076.14,327.54c-0.48-0.22-0.97-0.44-1.45-0.66
		C1074.7,326.25,1076.87,327.03,1076.14,327.54z M1066.84,327.46c-0.57-0.12-1.63,0.36-1.55-0.44
		C1065.86,327.15,1066.97,326.66,1066.84,327.46z M1043.62,312.59c1.58,0.32,3.17,0.64,4.75,0.97
		C1047.97,314.15,1043.25,313.21,1043.62,312.59z M1005.89,304.33c-5.61-0.92-18.32-4.36-6.12-1.38
		C1001.48,303.53,1006.33,302.07,1005.89,304.33z M997.44,297.59c0.36,0.16,1.15-0.03,0.98,0.48
		C998,297.96,997.21,298.2,997.44,297.59z M995.63,297.09c-2.16,0.99-8.8-0.56-11.23-1.36
		C988.14,296.18,991.88,296.63,995.63,297.09z M992.12,301.72c-0.46-0.11-0.92-0.21-1.37-0.32
		C990.71,300.94,992.57,301.09,992.12,301.72z M987.55,301.14c-0.73-0.18-2.48,0.24-1.7-0.8
		C986.36,300.59,988.04,300.42,987.55,301.14z M978.48,299.8c-0.44,0-0.87,0-2.31,0C977.73,299.62,978.5,298.78,978.48,299.8z
		 M977.88,295.09c-0.81-0.2-1.62-0.39-2.43-0.59C975.78,294.27,978.36,294.23,977.88,295.09z M972.11,293.93c-8.77,0-17.53,0-26.3,0
		C953.51,293.29,964.44,293.29,972.11,293.93z M942.84,293.08c-0.19,0.2-1.27,0.2-1.46,0C941.87,293.08,942.35,293.08,942.84,293.08
		z M941.32,297.51c10.28,1.34,25.4-1.7,33.28,1.87C957.05,297.62,897.77,297.61,941.32,297.51z M857.41,298.5c-0.35,0-0.71,0-1.06,0
		C856.28,298.22,857.47,298.22,857.41,298.5z M784.85,312.02c0.28,0.88-4.01,1.66-4.07,0.69
		C782.14,312.48,783.5,312.25,784.85,312.02z M733.24,323.82c0.58,1.05-4.51,2.6-4.74,1.54
		C730.09,324.84,731.66,324.33,733.24,323.82z M727.96,298.06c-0.7,0.18-1.4,0.36-2.11,0.54
		C725.52,298.02,727.92,297.25,727.96,298.06z M675.93,326.38c0.32,0.5-2.29,1.7-2.41,1.04
		C674.33,327.08,675.13,326.73,675.93,326.38z M691.37,338.27c13.43-5.24-18.94,10.31-25.55,13.15
		C672.38,347.6,683.1,342.2,691.37,338.27z M587.78,386c-0.48-0.21,0.82-1.36,1.01-0.96C588.45,385.37,588.11,385.68,587.78,386z
		 M593.75,376.77c0.47-0.24,0.95-1.28,1.34-0.73C594.62,376.27,594.14,377.3,593.75,376.77z M575.96,392.2
		c-1.15-2.42,17.54-17.92,22.6-21.08C585.27,380.92,592.14,382.08,575.96,392.2z M601.69,368.49c1-1.1,1.37-1.5,1.73-1.9
		C604.21,367.24,602.85,367.41,601.69,368.49z M612.3,361.5c0.52-0.26,1.08-1.41,1.5-0.82C613.27,360.93,612.72,362.07,612.3,361.5z
		 M618.89,351.85c0.69-0.44,1.38-0.88,2.07-1.32C621.7,351.02,619.07,352.81,618.89,351.85z M626.9,340.36
		c-0.42,0.28-0.85,0.56-1.27,0.83C625.2,340.89,626.69,339.59,626.9,340.36z M644.17,424.21c0.21-0.29,1.77-0.29,2.01,0
		C645.51,424.21,644.84,424.21,644.17,424.21z M649.41,424.43c0.5,0.04,1.01,0.07,1.51,0.11
		C650.81,424.79,649.41,424.87,649.41,424.43z M697.64,411.68c0.07-0.48,2.57-0.48,2.67,0
		C699.41,411.68,698.53,411.68,697.64,411.68z M655.35,403.41c19.52,0.8,39.03,1.61,57.77,2.38
		C694.33,406.9,674.85,404.75,655.35,403.41z M667.09,399.62c0.57,0,1.14,0,1.71,0C669.11,400.41,666.71,400.63,667.09,399.62z
		 M707.24,411.49c7.2-0.53,17.11-0.53,24.33,0C723.46,411.49,715.35,411.49,707.24,411.49z M716.6,405.58
		c-0.17-0.35,1.25-0.44,1.07-0.05C717.32,405.55,716.96,405.57,716.6,405.58z M729.44,405.5c2.99-0.46,8.24-0.46,11.26,0
		C736.95,405.5,733.2,405.5,729.44,405.5z M739.96,410.73c1.17,0,2.33,0,3.5,0C743.32,411.28,740.04,411.29,739.96,410.73z
		 M744.23,405.18c1.57,0,3.14,0,4.71,0C748.63,405.87,744.47,405.88,744.23,405.18z M788.22,399.02c0.55-0.04,1.1-0.09,1.66-0.13
		C790.1,399.44,788.27,399.34,788.22,399.02z M798.92,398.56c0.52-0.04,1.04-0.08,1.56-0.11
		C800.65,398.93,798.98,398.84,798.92,398.56z M812.71,398.59c0.57,0.09,1.67-0.52,1.68,0.2
		C813.82,398.69,812.72,399.3,812.71,398.59z M810.98,398.23c0.19-1.92,5.24-1.09,7.16-1.92
		C827.15,395.98,814.42,396.53,810.98,398.23z M819.11,397.84c1.25-0.2,2.51-0.41,3.76-0.61
		C823.42,398.28,819.05,398.74,819.11,397.84z M828.16,395.31c0.46,0,0.93,0,1.39,0C829.11,395.37,828.6,395.37,828.16,395.31z
		 M834.24,396.64c-0.67-1.14,3.02-1.34,3.22-0.67C836.39,396.19,835.31,396.42,834.24,396.64z M832.04,395.43
		c-0.07-1.95,4.67-0.72,6.39-1.36C845.55,393.35,834.81,394.54,832.04,395.43z M840.14,395.58c-0.21-0.5,1.74-0.7,1.75-0.2
		C841.3,395.45,840.72,395.52,840.14,395.58z M846.56,394.99c-0.25-0.63,2.7-1.1,2.71-0.47
		C848.37,394.67,847.47,394.83,846.56,394.99z M843.91,393.81c0.19-1.14,5.35-1.27,6.02-0.8
		C847.93,393.28,845.92,393.55,843.91,393.81z M852.31,393.86c0.48,0,0.95,0,1.43,0C853.98,394.41,852,394.62,852.31,393.86z
		 M852.29,392.48c0.74-0.04,1.47-0.09,3.33-0.2C853.75,392.44,852.33,393.57,852.29,392.48z M857.69,393.33c0.54,0,1.08,0,1.62,0
		C859.43,393.77,857.54,393.77,857.69,393.33z M864.25,393.49c1.07-1.61,5.78-0.75,8.09-1.47
		C882.5,391.45,868.27,392.39,864.25,393.49z M867.02,391.44c-11.26,1.64,12.08-2.52,16.35-1.35
		C877.92,390.55,872.47,391,867.02,391.44z M887.54,391.18c-1.17,0.12-2.34,0.25-3.51,0.37
		C883.66,390.67,887.83,390.25,887.54,391.18z M888.82,387.12c1.41-0.23,2.82-0.46,4.22-0.7
		C893.55,387.76,889.39,387.61,888.82,387.12z M986.16,382.25c0.74,0,1.48,0,2.22,0C988.22,382.55,986.07,382.87,986.16,382.25z
		 M912.95,388.83c-0.27,0.03-0.53,0.06-0.8,0.09c-3.56,0.42-7.13,0.8-10.71,0.95c-2.56,0.22-4.8,0.41-6.65,0.55
		c-5.62-0.36-3.4-1.15,3.39-2.19c0.14-0.09,0.3-0.17,0.51-0.17c0.25,0,0.5-0.02,0.75-0.02c19.93-2.9,72.34-7.54,92.02-10.19
		c-27.45,0.24-59.77,6.48-88.81,8.69c27.69-4.72,167.9-17.87,121.61-13.05c-52.97,5.48,49.61-2.87,5.48,2.23
		C1054.83,374.44,959.43,384.49,912.95,388.83z M895.53,386.35c1.38,0,2.77,0,4.15,0C899.3,386.87,895.97,386.87,895.53,386.35z
		 M942.97,378.93c0.36,0,0.73,0,1.09,0C944.1,379.18,942.85,379.3,942.97,378.93z M972.17,376.32c-0.14-0.37,1.2-0.34,1.18-0.05
		C972.95,376.28,972.56,376.3,972.17,376.32z M977.03,375.76c0.02-0.23,1.12-0.23,1.15,0C977.79,375.76,977.41,375.76,977.03,375.76
		z M980.12,375.16c0.5,0,1,0,2.61,0C980.99,375.35,980.07,376.25,980.12,375.16z M1015.13,371.43c-0.15-0.42,1.56-0.42,1.42,0
		C1016.07,371.43,1015.6,371.43,1015.13,371.43z M1040.34,379.5c6.91-0.28,15.72-0.64,24.53-0.99
		C1058.88,381.18,1047.85,379.73,1040.34,379.5z M1067.56,371.14c-0.92,0.45-4.1,0.45-5.04,0
		C1064.2,371.14,1065.88,371.14,1067.56,371.14z M1063.48,366.93c0.53,0.13,1.6-0.35,1.52,0.36
		C1064.47,367.16,1063.39,367.63,1063.48,366.93z M1066.54,372.84c-3.7,1.06-13.43,2.13-16.87,0.77
		C1055.29,373.35,1060.91,373.09,1066.54,372.84z M1059.17,371.78c-3.27,0.16-6.55,0.31-9.82,0.47
		C1050.6,371.13,1058.02,370.62,1059.17,371.78z M1058.1,367.38c2.57-0.09,1.74,0.38-0.52,0.26
		C1057.45,367.64,1057.31,367.76,1058.1,367.38z M1068.89,378.45c0.76-0.05,1.52-0.11,2.28-0.16
		C1071.23,378.84,1068.97,378.62,1068.89,378.45z M1050.59,375.2c6.84-0.32,13.69-0.64,20.53-0.95
		C1093.56,372.91,1059.44,375.98,1050.59,375.2z M1077.18,372.59c-1.28,0.45-4.81,0.44-6.11,0
		C1073.1,372.59,1075.14,372.59,1077.18,372.59z M1074.16,370.82c0.55-0.39,2.91-0.4,3.36,0
		C1076.41,370.82,1075.28,370.82,1074.16,370.82z M1079.75,372.62c0.53-0.57,2.3-0.25,3.32-0.22
		C1082.2,372.46,1080.98,372.54,1079.75,372.62z M1083.39,370.47c0.03-0.25,1.26-0.25,1.3,0
		C1084.25,370.47,1083.82,370.47,1083.39,370.47z M1113.58,379.02c0.64,0,1.22,0,1.79,0
		C1115.24,379.47,1114.07,379.06,1113.58,379.02z M1118.14,380.12c-0.8-0.1,0.14-1.9,0.67-1.17
		C1118.59,379.34,1118.36,379.73,1118.14,380.12z M1046.56,367.86c0.36,0,0.72,0,1.08,0c0.1,0.31-1.39,0.58-1.18,0.01
		c-29.97,2.41-56.91,5.26-83.83,7.85c-6.93,1.24-13.81,2.47-20.85,1.93c-3.62,0.32-7.25,0.64-10.91,0.94
		c-6.21-0.19-56.48,6.41-114.41,12.17c-0.95,0.43-1.99,0.67-3.08,0.68c-2.01,0.01-4.02,0.1-6.03,0.21
		c-19.62,1.89-39.89,3.64-59.44,4.96c-3.88,0.5-7.73,0.81-11.6,0.74c-81.97,4.88-145.94,0.99-85.97-33.89
		c-56.76,26.42,74.13-43.58,106.12-42.32c10.58-2.18,34.08-6.68,10.32-3.17c-46.7,6.58-15.93,2.39,18.09-3.34
		c0.39-0.1,0.8-0.17,1.23-0.21c28.77-4.86,59.22-10.74,46.73-12.08c20.04-1.42,38.17-2.29,54.71-2.66
		c-8.63-0.23-17.25-0.55-25.83-1.06c60.26,0.4,121.47-1.51,179.5,16.37c26.9,6.31,0.41,0.92-11.84-2.31
		c-23.68-6.71-47.85-9.61-72.21-11.02c34.53,3.19,60.18,9.7,83.95,18.24c3.25,0.78,6.42,1.78,9.34,3.49
		c28.7,11.11,55.97,25.03,94.72,39.39C1107.59,363.62,1075.65,365.53,1046.56,367.86z M1142.7,343.38c2.55,0.84,5.1,1.68,7.66,2.53
		C1149.3,346.77,1143.13,344.5,1142.7,343.38z M1184.75,431.81c0.11-1.93,0.22-3.87,0.33-5.8
		C1185.3,427.15,1185.89,431.24,1184.75,431.81z M1195.26,435.48c0-1.75,0-3.5,0-5.24C1195.68,431,1196.36,435.19,1195.26,435.48z
		 M1197.24,467.79c0-0.41,0-0.83,0-1.24C1197.54,466.48,1197.54,467.84,1197.24,467.79z M1201.09,571.58
		c-0.23-1.09-0.46-3.43-0.64-5.54C1200.84,568.03,1201.55,570.24,1201.09,571.58z M666.59,645.6c0.38-2.12,8.69-9.21,10.79-8.1
		C673.79,640.2,670.19,642.9,666.59,645.6z M648.14,668.56c0.2-0.25,0.4-0.49,0.6-0.74C649.28,667.98,648.36,669.02,648.14,668.56z
		 M652.08,673.55c0.39-0.22,0.93-0.85,1.04-0.17C652.73,673.78,652.34,674.27,652.08,673.55z M656.39,670.76
		c0.41-0.22,0.81-0.45,1.22-0.67C658.62,670.6,656.73,671.69,656.39,670.76z M653.27,668.37c1.54-1.69,3.08-3.39,4.62-5.08
		C658.71,664.23,654.22,669.25,653.27,668.37z M660.66,660.16c2.45-1.98,4.89-3.97,7.34-5.95
		C678.6,644.61,666.58,658.61,660.66,660.16z M677.29,647.31c-4.96,3.51,0.11-0.93,2.14-2.46
		C680.9,646.1,678.16,646.5,677.29,647.31z M684.68,636.93c0.34-0.24,0.68-0.48,1.01-0.72C686.19,636.52,684.8,637.63,684.68,636.93
		z M687.31,629.98c0.91-0.4,2.03-2.31,2.66-0.99C689.07,629.42,688.03,631.27,687.31,629.98z M692.99,631.74
		c0.48-0.28,0.96-0.57,1.44-0.85C694.93,631.29,693.05,632.68,692.99,631.74z M698.66,619.37c0.55-0.34,1.1-0.67,1.65-1.01
		C700.86,618.76,698.79,620.01,698.66,619.37z M695.78,674.12c-0.42-0.94-0.39-3.65,0-4.72
		C695.78,670.98,695.78,672.55,695.78,674.12z M697.42,637.54c1.33-0.66,3.05-3.99,4.06-1.93
		C700.2,636.08,698.51,638.81,697.42,637.54z M702.05,675.32c0,3.13,0,6.25,0,9.38C701.71,682.13,701.71,677.9,702.05,675.32z
		 M702.03,687.62c0,1.15,0,2.3,0,3.45C701.73,690.39,701.72,688.21,702.03,687.62z M701.86,705.47c0-2.52,0-5.04,0-7.56
		C702.25,699.78,702.26,703.66,701.86,705.47z M771.6,593.44c-0.88,0.26-2.01,1.3-2.13-0.09
		C770.25,593.28,771.49,592.3,771.6,593.44z M742.72,594.92c0.47,0.58-1.41,0.97-1.62,0.57
		C741.64,595.29,742.18,595.1,742.72,594.92z M744.56,612.28c-7.15,1.25,1.37-3.34-2.77-3.83
		C756.02,603.26,758.53,604.67,744.56,612.28z M753.35,602.66c0.73-0.72,0.48-0.73,1.72,0.14
		C754.18,603.14,753.89,603.41,753.35,602.66z M742.52,614.06c-3.35,1.75-6.69,3.5-10.38,5.43
		C731.47,617.36,739.49,611.05,742.52,614.06z M741.5,624.97c-2.15,2.29-4.3,4.59-6.45,6.88
		C734.42,628.03,739.12,622.99,741.5,624.97z M731.41,634.14c-0.3,0.5-0.6,1-0.9,1.5C729.59,635.56,730.75,633.08,731.41,634.14z
		 M728.12,607.68c-0.5,0.15-0.99,0.31-1.49,0.46C726.23,607.62,728.06,606.96,728.12,607.68z M714.09,695.26
		c0.17,0.41,0.33,0.81,0.5,1.22C714.13,696.95,713.28,695.25,714.09,695.26z M715.34,684.15c0-0.51,0-1.02,0-1.53
		C716.09,682.3,716.31,684.51,715.34,684.15z M716.01,696.73c0.16,0.7,0.32,1.39,0.48,2.09
		C716.02,699.05,715.33,696.74,716.01,696.73z M716.99,690.19c-2.96,4.14-0.16-6.25,0.65-13.44
		C717.72,687.43,717.85,706.9,716.99,690.19z M720.43,710.69c-3.99-11.55-1.15-32.07,0-45.23
		C720.44,679.85,720.44,695.27,720.43,710.69z M723.21,604.12c0.05,1.46-4.06,2.36-4.71,1.48
		C718.27,604.04,728.81,602.81,723.21,604.12z M724.14,667.65c0.48-4.16,1.68-8.01,4.93-10.92
		C731.47,652.47,725.08,664.83,724.14,667.65z M726.04,649.67c-0.34-2.04,2.14-11.04,4.25-11.31
		C728.87,642.13,727.46,645.9,726.04,649.67z M737.65,634.63c5.02-4.73-5.67,6.46-7.4,9.93
		C730.79,633.06,754.97,617.44,737.65,634.63z M744.22,628.95c0.39-0.32,0.79-0.64,1.18-0.96
		C746.13,628.35,744.46,629.84,744.22,628.95z M745.64,661.08c0.38-0.25,0.72-0.9,1.05-0.33
		C746.33,661.23,746.07,661.77,745.64,661.08z M741.44,622.52c2.86-1.06,7.18-7.01,9.41-5
		C748.06,618.56,743.44,624.71,741.44,622.52z M758.19,721.1c-0.12-0.97-0.24-1.94-0.35-2.92
		C758.43,718.07,759.28,721.33,758.19,721.1z M751.72,615.49c2.66-0.94,6.29-4.93,8.51-4.22
		C757.66,612.13,753.62,617.13,751.72,615.49z M759.29,602.65c7.12-6.95-9.83,2.12-12.81-0.57
		C762.81,598.7,790.46,591.77,759.29,602.65z M762.37,610.18c-1.02-1.37,2.22-1.28,3.15-1.94
		C769.18,606.01,763.92,609.26,762.37,610.18z M769.25,606c2.25-0.89,4.49-1.79,6.74-2.68C776.57,604.63,769.71,607.3,769.25,606z
		 M1007.84,677.54c0.19,0.43,0.29,0.66,0.38,0.88C1007.66,678.23,1007.54,678.37,1007.84,677.54z M1001.18,669.61
		c0.34,0.89,0.68,1.78,1.03,2.67C1001.48,672.96,1000.34,669.65,1001.18,669.61z M990.2,657.45c0.39,0.64,1.67,1.23,0.74,1.8
		C990.58,658.62,989.35,658.03,990.2,657.45z M988.98,634.51c-0.96-0.41-1.91-0.83-2.87-1.24
		C986.15,632.13,990.06,633.46,988.98,634.51z M988.43,656.28c-0.51-0.41,0.05-0.93,0.45-1.28
		C989.11,655.67,989.41,656.34,988.43,656.28z M985.65,650.81c0.25,0.24,0.51,0.47,0.76,0.71
		C986.21,652.03,985.16,651.17,985.65,650.81z M986.02,653.84c-0.94-0.77-1.87-1.55-2.81-2.33
		C983.55,650.49,987.44,653.21,986.02,653.84z M987.11,613.72c-0.21,0.91-0.39,0.3-1.85-0.36
		C986.56,613.61,986.83,613.67,987.11,613.72z M939.45,657.88c-0.26-0.52-0.53-1.05-0.79-1.57
		C939.29,655.53,940.41,657.83,939.45,657.88z M926.42,641.76c2.12,4.2,19.1,23.16,8.4,17.6
		C927.88,655.81,921.94,649.51,926.42,641.76z M899.75,659.87c0.04,0.51,0.08,1.01,0.11,1.52
		C899.47,661.48,898.97,659.55,899.75,659.87z M899.49,668.95c-0.94-3.04-1.89-6.08-2.84-9.12
		C898.1,660.3,899.02,665.39,899.49,668.95z M895.81,659.93c0.43,1.66,1.33,6.23,2.11,10.18
		C896.62,666.29,894.93,662.36,895.81,659.93z M897.41,678.37c-0.12-1.05-0.24-2.09-0.36-3.14
		C897.73,675.09,898.7,678.6,897.41,678.37z M896.06,670.77c-0.4-1.29-0.87-3.95-1.24-6.2C895.52,666.78,897.5,669.91,896.06,670.77
		z M892.42,637.47c-0.17-0.34-0.35-0.68-0.52-1.03C892.22,636.07,893.14,637.39,892.42,637.47z M850.32,629.32
		c0.49,0.71,0.5,3.88,0,4.51C850.32,632.33,850.32,630.83,850.32,629.32z M847.37,616.86c0.39,4.09,0.44,13.74-1.38,17.13
		C846.45,628.28,846.91,622.57,847.37,616.86z M844.84,591.53c-3.12-0.78-9.02,0.68-10.73-1.36
		C837.07,590.96,844.45,588.4,844.84,591.53z M844.7,620.34c-0.26,4.67-0.53,9.34-0.8,14.01
		C842.24,632.5,843.17,622.22,844.7,620.34z M841.96,633.86c0-0.43,0-0.86,0-1.28C842.26,632.5,842.4,634.02,841.96,633.86z
		 M838.11,633.34c-0.47-0.2-0.24-0.43,0-0.7C838.39,632.89,838.39,633.07,838.11,633.34z M828.83,594.94
		c-1.32-0.09-2.64-0.18-3.96-0.26C824.62,593.55,829.52,593.44,828.83,594.94z M830.46,629.66c1.11,3.52,0.66,4.55-1.97,4.34
		C829.18,632.48,829.75,631.21,830.46,629.66z M812.54,584.82c-3.72-0.03-10.8,4.05-12.82,1.59
		C803.56,586.39,809.96,583.07,812.54,584.82z M797.89,587.87c-1.33,0.17-3.6,2.29-3.85,0.23
		C795.26,588.09,797.56,586.26,797.89,587.87z M792.33,589.62c-2.75,0.63-5.5,1.25-8.26,1.88
		C786.23,588.21,789.56,589.88,792.33,589.62z M809.18,589.55c-12.55,3.95-10.83,3.67-28.43,6.6
		C786.58,592.5,812.26,588.43,809.18,589.55z M788.66,596.57c1.86-2.06,11.85-3.15,14.62-2.31
		C798.41,595.03,793.54,595.8,788.66,596.57z M798.16,596.85c-1.6,0.33-3.2,0.66-4.8,1C792.69,596.64,798.23,595.59,798.16,596.85z
		 M791.99,597.97c-1.69,0.32-3.38,0.63-5.08,0.94C786.49,597.88,792.07,596.57,791.99,597.97z M803.5,603.17
		c-0.44,0.37-0.89,0.75-1.33,1.12C801.64,603.96,803.19,602.16,803.5,603.17z M786.8,596.33c-0.08,0.7-4.29,2.24-4.52,1.2
		C783.79,597.13,785.29,596.73,786.8,596.33z M778.07,632.7c0.13-0.5,0.22-0.92,0.3-1.28c0.03,0.93,0.44,1.68,2.02,0.44
		C778.56,634.27,776.61,636.02,778.07,632.7z M780.27,682.93c-0.28,0.61,0.04,2.03-0.77,1.78
		C779.79,684.11,779.49,682.71,780.27,682.93z M778.49,687.78c0.75-0.44,1.71-2.42,2.19-1.1
		C779.94,687.1,779.14,688.86,778.49,687.78z M783.11,625.95c-0.76,1.24-1.53,2.47-2.29,3.71
		C779.15,629.18,782.4,625.88,783.11,625.95z M781.45,676.92c0.3-0.51,0.16-1.78,0.87-1.45
		C782.01,675.97,782.15,677.23,781.45,676.92z M782.36,673.64c0.19-0.5,0.38-1,0.58-1.5C783.55,672.1,782.82,674.39,782.36,673.64z
		 M784.52,667.31c0.98,3.9-0.35,6.72,0.17,2.45C781.82,672.74,783.79,669.6,784.52,667.31z M783.85,683.42
		c3.73-6.76,2.85-26.17,12.31-24.39C794.8,665.34,783,696.77,783.85,683.42z M786.74,664.85c0.18-0.29,0.36-0.58,0.54-0.87
		C787.79,664.06,787.04,665.46,786.74,664.85z M792.89,657.46c0.96,0,1.93,0,2.89,0C795.96,658.13,792.82,658.12,792.89,657.46z
		 M790.73,685.36c-1.06-10.41,4.93-18.84,7.82-29.04C801.8,660.87,793.67,677.07,790.73,685.36z M798.6,670.88
		c0.77-2.17,1.54-4.34,2.31-6.51C801.82,665,799.91,671.19,798.6,670.88z M815.24,609.15c-14.56-1.2-24.02,4.47-34.33,15.23
		c-0.35-11.81-4.52,12.83-1.51-8.11C788.93,610.87,833.92,587.91,815.24,609.15z M817.79,608.63c-1.89,2.91,1.11-1.79,1.78-3.19
		C820.87,606.13,818.22,607.63,817.79,608.63z M816.96,592.2c2.99,0.43,9.29-2.21,10.55,0.1
		C824.41,591.9,818.77,593.97,816.96,592.2z M823.98,698.79c0.04,0.37,0.08,0.73,0.11,1.1C823.7,700.13,823.48,698.59,823.98,698.79
		z M829.62,679.16c-7.94,3.48-11.73-26.13-2.6-22.24C832.89,654.8,832.94,680.58,829.62,679.16z M829.33,591.4c1,0.16,2,0.33,3,0.49
		C832.38,592.72,828.65,592.62,829.33,591.4z M833.7,633.86c0.21-0.65-0.28-2.89,0.45-2.41C833.92,632.15,834.44,633.8,833.7,633.86
		z M835.24,592c0.65,0.05,1.31,0.1,1.96,0.16C837.41,592.78,834.79,592.83,835.24,592z M838.2,661.91
		c0.26,5.2,0.54,10.88,0.82,16.57C836.78,675.05,838.08,667.53,838.2,661.91z M839.77,664.46c-0.51-0.43-0.51-3.51,0-3.95
		C839.78,661.83,839.78,663.14,839.77,664.46z M839.79,677.32c0-2.97,0-5.94,0-9.46C840.01,671.56,841.26,675.7,839.79,677.32z
		 M842.58,661.41c0.88-11.2,1.94,1.72,1.85,6.15c1.75-7.76,1.12-13.33,11.2-11.05C867.58,702.09,831,669.33,842.58,661.41z
		 M866.52,607c-6.04,4.2-21.87-2.68-10.31-7.97c0.05-0.03,0.1-0.05,0.16-0.08c0.01-0.01,0.03-0.01,0.04-0.02
		c7.73-4.59,11.83,3.82,19.49,13.28C875.61,618.88,873.04,608.99,866.52,607z M883.1,626.37c-8.24-9.94,2.56,7.29,5.05,12.09
		c-12.52,1.96-9.15-11.62-11.22-19.55C880.63,626.28,876.44,603.13,883.1,626.37z M879.52,658.79
		c12.78-8.66,14.24,10.32,17.03,20.69C878.91,682.18,881.69,671.96,879.52,658.79z M888.3,717.43c-0.65,4.36-6.32-16.26-2.42-17.95
		C916.36,693.52,903.8,743.28,888.3,717.43z M924.17,643.73c-0.16,0.62,0.36,1.81-0.3,1.92
		C923.95,644.97,923.13,643.49,924.17,643.73z M924.12,652.31c-0.06-1.42-0.13-2.85-0.19-4.27
		C924.66,648.11,925.65,652.67,924.12,652.31z M927.99,675.03c-4.95-11,20.17,8.54,16.85,12.15
		C936.06,685.38,926.39,686.47,927.99,675.03z M943.51,720.77c-9.18,1.99-13.09-9.58-8.62-14.43c3.51,1.4,11.53-0.24,10.8,5.41
		C944.77,714.52,949.22,721.5,943.51,720.77z M959.69,621.5c0.69,0.02,0.76-0.18,1.17,0.68
		C960.28,621.84,959.99,621.67,959.69,621.5z M949.91,614.83c13.19,2.85,25.62,7.36,36.02,16.34
		C973.92,625.73,961.91,620.28,949.91,614.83z M970.5,718.62c-0.32,0.02-2.83-4.35-0.92-4.84
		C977.65,716.07,985.31,718.73,970.5,718.62z M981.89,692.78c-10.77-4.73-14.58-16.22-10.34-26.06
		C978.57,672.48,982.74,685.2,981.89,692.78z M992,700.38c-12.89-5.02-1.21-18.91-0.86-5.2C992.72,683.83,1001.88,708.2,992,700.38z
		 M1003.59,695.48c-6.88-17.02-19.88-30.46-26.48-47.2c10.58,9.59,18.04,17.39,22.31,25.97c0.02-0.21,0.19-0.37,0.64-0.41
		c0.1,0.72,1.14,1.85,0.14,2.07C1002.8,681.74,1003.94,688.01,1003.59,695.48z M1004.81,686.51c0.34,2.54,0.68,5.07,1.01,7.61
		C1004.89,692.97,1004.28,687.88,1004.81,686.51z M1005.67,655.66c-0.07-0.58-0.14-1.16-0.22-1.75
		C1006.16,653.48,1006.74,656.05,1005.67,655.66z M1006.07,682.23c-0.05-1.6-0.1-2.64-0.13-3.25c0.18,2.37,0.94,10.15,3.08,12.77
		C1006.46,700.03,1006.68,685.56,1006.07,682.23z M1027.13,663.58c-0.13-0.42-0.26-0.84-0.39-1.26
		C1027.11,662.08,1027.79,663.58,1027.13,663.58z M1029.82,671.08c0.2,0.45,0.4,0.89,0.6,1.34
		C1029.98,672.82,1029.48,671.2,1029.82,671.08z M1031.89,675.85c1.26,6.1,2.51,12.2,3.77,18.3
		C1034.06,690.29,1030.45,679.41,1031.89,675.85z M1207.75,628.25c0-1.33,0-2.67,0-4C1208.01,625.23,1207.98,627.14,1207.75,628.25z
		 M1212.13,546.38c0-1.36,0-2.73,0-4.09C1212.7,542.65,1212.69,545.95,1212.13,546.38z M1227.74,618.85
		c0.19,1.67,0.37,3.35,0.55,5.02C1226.98,624.46,1226.29,618.53,1227.74,618.85z"/>

	<path d="M830.5,485.36c-47.17-65.7-168.59-42.32-215.72-0.39c27.82,33.82,47.04-4.68,59.91-2.33c42.08-9.2,160.66-40.7,139.5,40.71
		C808.79,581.41,861.09,547.1,830.5,485.36z M657.79,487.36c0.72-2.04,4.69-2.97,8.07-4.15
		C662.68,484.73,658.98,486.55,657.79,487.36z"/>
	<path d="M966.34,433.82c-22.99,10.29-46.54,14.54-62.96,35.04c-19.41,14.68-59.84,88.92-11.61,68.08
		c-4.01,0.44,17.36-35.7,18.27-29c18.57-29.34,12.46-20.9,35.1-38.96c20.54-14.84,107.12-34.32,153.8-22.87
		C1094.66,408.04,998.2,423.61,966.34,433.82z M889.2,533.48c0.24-0.59,0.48-1.17,0.71-1.76
		C890.52,531.78,889.9,534.09,889.2,533.48z M982.68,453.33c0.08-0.08,0.29-0.01,1.22-0.01
		C982.73,453.69,982.07,454.21,982.68,453.33z"/>
	<path d="M789.21,530.6c-18.16,24.83-57.57,49.58-94.89,38.87c-9.87-1.33-3.63-14.33-14.4-12.63
		C685.23,499.74,757.14,492.98,789.21,530.6z"/>
	<path d="M943.63,540.5c-17.81-5.81,10.63-45.14,28.4-42.57c20.59,2.81,66.7,15.14,54.2,35.41c-12.23-0.02-22.58,8.29-32.08,17.27
		C980.58,557.84,951.22,563.83,943.63,540.5z M1023.77,518.05c-0.82,0.34,0.42,1.38,0.59,0.71
		C1024.19,518.51,1023.98,518.28,1023.77,518.05z"/>
	
</g>
</svg>
